<svg id="图层_1" data-name="图层 1" xmlns="http://www.w3.org/2000/svg" viewBox="0 0 129 24"><defs><style>.cls-1,.cls-2{fill:#ff4570;}.cls-2,.cls-4{fill-rule:evenodd;}.cls-3,.cls-4{fill:#fff;}</style></defs><title>未标题-2</title><g id="矩形_13" data-name="矩形 13"><rect class="cls-1" x="47.46" y="0.57" width="6.75" height="22.59"/></g><g id="矩形_14" data-name="矩形 14"><rect class="cls-1" x="56.46" y="0.57" width="8.97" height="6.78"/></g><g id="矩形_14_拷贝" data-name="矩形 14 拷贝"><rect class="cls-1" x="56.46" y="9.6" width="8.97" height="6.78"/></g><g id="矩形_13_拷贝" data-name="矩形 13 拷贝"><polygon class="cls-2" points="42.7 0.57 35.97 0.57 47.47 23.16 54.2 23.16 42.7 0.57"/></g><path class="cls-3" d="M70.3.69l2,.58A27.37,27.37,0,0,1,70.76,5v8.18c1.75-1.47,2.72-3.74,2.9-6.79H71.28V4.48H73.7c0-1.24,0-2.48,0-3.72h2c0,.33,0,1.57,0,3.72h5.79V6.4H78.22v5.69c0,.45.17.68.52.68H79c.28,0,.45-.09.52-.29A23.11,23.11,0,0,0,79.85,10c.58.27,1.19.53,1.82.76-.15,1.19-.28,2-.4,2.53a1.51,1.51,0,0,1-.67,1,2.35,2.35,0,0,1-1.26.31H78.1c-1.22,0-1.83-.67-1.83-2V6.4h-.61Q75.5,12.09,72.14,15c-.5-.67-1-1.25-1.38-1.73v1.75h-2V8.2q-.51.69-1,1.32c-.15-.84-.33-1.72-.54-2.65A19.51,19.51,0,0,0,70.3.69ZM78,.82a20,20,0,0,1,2.6,1.82L79.37,4.1q-.66-.55-2.49-2Z"/><path class="cls-3" d="M82.91,13.18H89.1v-.83H84.19V10.84H89.1V10H83.5V8.47H96.73V10H91.15v.83h5v1.51h-5v.83h6.16v1.54H82.91Zm5.36-8c0,.61,0,1.21,0,1.8a28.24,28.24,0,0,0-3.67,1.29l-1-1.13A1.75,1.75,0,0,0,84,5.86V4.16h-.89V2.49h1.83c-.17-.42-.37-.86-.58-1.3L86.19.66c.23.46.47,1,.73,1.58L86,2.49h2.45V4.16H85.86V5.93C86.58,5.73,87.38,5.47,88.27,5.16Zm8.22-4V6.56a1.6,1.6,0,0,1-.38,1.14,2.17,2.17,0,0,1-1.56.47c-.78,0-1.48,0-2.09,0A11.62,11.62,0,0,0,92,6.9c.71,0,1.36.07,2,.07.37,0,.55-.21.55-.63V6.2H90.85a4.27,4.27,0,0,1-.7,2.25c-.67-.29-1.33-.54-2-.76A5.67,5.67,0,0,0,89,4.35V1.2Zm-5.59,4h3.64V4.42H90.91Zm3.64-2.51H90.91v.73h3.63Z"/><path class="cls-3" d="M104.32.85l-.27.35q1.4,1.47,2.86,3.18L105.36,5.8a37.07,37.07,0,0,0-2.3-3,16.18,16.18,0,0,1-2.62,3H106c0,.5-.06,1.55-.13,3.15a2,2,0,0,1-2.21,2.15c-.48,0-.93,0-1.34,0-.1-.92-.17-1.52-.22-1.78.27,0,.76.05,1.46.05.29,0,.44-.21.45-.57s.05-.7.07-1.24h-2.49v4.48c0,.62.28.92.82.91H104a.71.71,0,0,0,.78-.69c0-.19.07-.59.13-1.17.66.15,1.34.3,2,.42-.13.77-.25,1.37-.36,1.82-.21.91-1,1.36-2.23,1.36H102.1c-1.62,0-2.43-.67-2.43-2V6.53l-.42.36c-.17-.43-.45-1-.86-1.87a13.61,13.61,0,0,0,3.5-4.17Zm4.88,10.28h-1.92V2.29h1.92ZM110.33.94h1.94V12.22c0,1.78-.6,2.7-1.81,2.75l-2.16,0a13.07,13.07,0,0,0-.43-2.08q.61,0,1.68,0c.52,0,.78-.36.78-1.07Z"/><path class="cls-3" d="M116.24,15.22V10.31l-1.35.24a17.53,17.53,0,0,0-.73-1.69A43.52,43.52,0,0,0,119.3,8a9.63,9.63,0,0,1-1.46-1.1A19.37,19.37,0,0,1,115.92,8a14.21,14.21,0,0,0-1.09-1.35,12.2,12.2,0,0,0,4-2.69h2.26c-.16.2-.33.39-.5.58h5.44V3.6h-9.32V5.44h-2V2h5.65L119.94.89l2.48-.24c.14.35.29.78.46,1.3h5.17V5.44h-1.74V5.9A10.73,10.73,0,0,1,123.62,8a29.65,29.65,0,0,0,5,.66l-.73,1.81-1.34-.22v5h-2v-.7h-6.37v.7ZM121.43,9a31.5,31.5,0,0,1-4.16,1.14H126A28.73,28.73,0,0,1,121.43,9Zm3.16,2.81h-6.37v1.09h6.37Zm-3.14-4.47A10,10,0,0,0,123.68,6h-4.41A9.2,9.2,0,0,0,121.45,7.29Z"/><path class="cls-3" d="M56.8,22.5a1.68,1.68,0,0,0,.55.3,2,2,0,0,0,.66.12c.63,0,1-.23,1-.68a.65.65,0,0,0-.1-.34.91.91,0,0,0-.28-.27,6.35,6.35,0,0,0-.67-.36,2.64,2.64,0,0,1-.89-.63A1.08,1.08,0,0,1,56.8,20a1.06,1.06,0,0,1,.45-.9,1.88,1.88,0,0,1,1.14-.33,2.23,2.23,0,0,1,1,.17v.63a1.76,1.76,0,0,0-1-.28,1.27,1.27,0,0,0-.68.17.57.57,0,0,0-.26.49.61.61,0,0,0,.18.45,4.06,4.06,0,0,0,.79.47,2.56,2.56,0,0,1,.92.64,1.08,1.08,0,0,1,.27.72,1.06,1.06,0,0,1-.43.91,1.94,1.94,0,0,1-1.2.32,3,3,0,0,1-.62-.07,1.39,1.39,0,0,1-.52-.19Z"/><path class="cls-3" d="M68.65,19.34h-1.3v4h-.58v-4h-1.3v-.52h3.18Z"/><path class="cls-3" d="M77.25,23.36H74.83V18.82h2.32v.52H75.41v1.45H77v.52H75.41v1.53h1.84Z"/><path class="cls-3" d="M87.66,23.36v-3c0-.25,0-.55,0-.89h0a2.65,2.65,0,0,1-.13.45l-1.49,3.45h-.32l-1.49-3.42a3.45,3.45,0,0,1-.13-.48h0c0,.21,0,.51,0,.92v3h-.55V18.82h.79l1.32,3.11a3.84,3.84,0,0,1,.21.56h0l.21-.57,1.35-3.1h.75v4.54Z"/><path class="cls-3" d="M94.66,23.05a.35.35,0,0,1,.1-.26.33.33,0,0,1,.27-.11.37.37,0,0,1,.27.11.36.36,0,0,1,.11.26.39.39,0,0,1-.11.27.39.39,0,0,1-.54,0A.38.38,0,0,1,94.66,23.05Z"/><path class="cls-3" d="M104.89,23.17a2.72,2.72,0,0,1-1.25.26,2,2,0,0,1-1.54-.62,2.28,2.28,0,0,1-.58-1.64,2.38,2.38,0,0,1,.65-1.76,2.18,2.18,0,0,1,1.65-.67,2.56,2.56,0,0,1,1.07.19v.61a2.12,2.12,0,0,0-1.06-.27,1.64,1.64,0,0,0-1.23.5,2,2,0,0,0-.47,1.37,1.81,1.81,0,0,0,.44,1.29,1.49,1.49,0,0,0,1.16.48,2.2,2.2,0,0,0,1.16-.3Z"/><path class="cls-3" d="M111,21.14a2.5,2.5,0,0,1,.6-1.75,2.05,2.05,0,0,1,1.6-.65,1.92,1.92,0,0,1,1.51.64,2.36,2.36,0,0,1,.57,1.65,2.46,2.46,0,0,1-.59,1.75,2.21,2.21,0,0,1-3.11,0A2.41,2.41,0,0,1,111,21.14Zm.62-.05a2,2,0,0,0,.41,1.32,1.36,1.36,0,0,0,1.09.5,1.44,1.44,0,0,0,1.14-.48,2,2,0,0,0,.41-1.33,2.07,2.07,0,0,0-.4-1.35,1.38,1.38,0,0,0-1.11-.48,1.42,1.42,0,0,0-1.12.5A2,2,0,0,0,111.6,21.09Z"/><path class="cls-3" d="M125.69,23.36v-3c0-.25,0-.55,0-.89h0a4.15,4.15,0,0,1-.13.45l-1.49,3.45h-.32l-1.49-3.42a3.45,3.45,0,0,1-.13-.48h0c0,.21,0,.51,0,.92v3h-.56V18.82h.79l1.33,3.11a3.58,3.58,0,0,1,.2.56h0c.1-.28.17-.47.22-.57l1.35-3.1h.75v4.54Z"/><g id="矩形_12_拷贝" data-name="矩形 12 拷贝"><polygon class="cls-2" points="25.05 0.57 25.05 8.47 35.98 8.47 35.98 15.26 25.05 15.26 25.05 23.16 42.7 23.16 42.7 0.57 25.05 0.57"/></g><g id="矩形_12" data-name="矩形 12"><polygon class="cls-4" points="18.3 0.57 18.3 15.26 7.08 15.26 7.08 0.57 0.36 0.57 0.36 23.16 25.05 23.16 25.05 0.57 18.3 0.57"/></g></svg>